# xmcd
#
# Track frame offsets: 
#        150
#        17052
#        33602
#        47833
#        66687
#        85056
#        102286
#        116906
#        129136
#        144566
#        162374
#        183771
#        201637
#
# Disc length: 2876 seconds
#
# Revision: 0
# Processed by: cddbd v1.5.2PL0 Copyright (c) Steve Scherf et al.
# Submitted via: ExactAudioCopy v0.99pb5
#
DISCID=bd0b3a0d
DTITLE=One Take Toni - Eigentlich
DYEAR=2009
DGENRE=Blues
TTITLE0=Groove
TTITLE1=Reggae
TTITLE2=Eigentlich
TTITLE3=Traumfrau
TTITLE4=Sommertag
TTITLE5=Das Leben
TTITLE6=Mitten raus
TTITLE7=Fernsehshow
TTITLE8=Ja-Song
TTITLE9=My own groove
TTITLE10=Wo kommen die Gedanken her
TTITLE11=Herbst
TTITLE12=Den ganzen Tag
EXTD=
EXTT0=
EXTT1=
EXTT2=
EXTT3=
EXTT4=
EXTT5=
EXTT6=
EXTT7=
EXTT8=
EXTT9=
EXTT10=
EXTT11=
EXTT12=
PLAYORDER=
